{
.appVersion = "3131";
.formatVersion = 3;
axes = (
{
hidden = 1;
name = Shrink;
tag = ASHR;
},
{
hidden = 1;
name = Stretch;
tag = ASTR;
}
);
classes = (
{
code = "dotabove-ar
dotabove-ar.reh
dotbelow-ar
twodotsabove-ar
twodotsbelow-ar
threedotsabove-ar
threedotsabove-ar.seen
";
name = tashkil;
},
{
code = "alef-ar
alef-ar.1";
name = alef;
},
{
code = "alef-ar.fina
alef-ar.fina.1";
name = alef.fina;
},
{
code = "waw-ar waw-ar.1";
name = waw;
},
{
code = "waw-ar.fina waw-ar.fina.1
";
name = waw.fina;
},
{
code = "ain-ar";
name = ain;
},
{
code = "ain-ar.init
ain-ar.init
";
name = ain.init;
},
{
code = "hamza-ar
@alef
behDotless-ar
hah-ar
dal-ar
reh-ar
seen-ar
sad-ar
tah-ar
ain-ar
fehDotless-ar
qafDotless-ar
kaf-ar
lam-ar
meem-ar
noonghunna-ar
heh-ar
@waw
alefMaksura-ar
behDotless_reh-ar
behDotless_waw-ar
ain_waw-ar
fehDotless_alefMaksura-ar
fehDotless_alef-ar
lam_alef-ar
meem_noonghunna-ar
lam_lam_heh-ar
threedots-ar
";
name = isol;
},
{
code = "behDotless-ar.init
behDotless-ar.init.ain
hah-ar.init
seen-ar.init
sad-ar.init
tah-ar.init
ain-ar.init
fehDotless-ar.init
kaf-ar.init
lam-ar.init
meem-ar.init
meem-ar.init.alt
heh-ar.init
behDotless_seen-ar.init
";
name = init;
},
{
code = "@alef.fina
alef-ar.fina.meem
behDotless-ar.fina
hah-ar.fina
dal-ar.fina
reh-ar.fina
seen-ar.fina
sad-ar.fina
tah-ar.fina
ain-ar.fina
fehDotless-ar.fina
qafDotless-ar.fina
kaf-ar.fina
lam-ar.fina
meem-ar.fina
noonghunna-ar.fina
heh-ar.fina
@waw.fina
waw-ar.fina.alt
alefMaksura-ar.fina
lam_alef-ar.fina
lam_alefMaksura-ar.fina
";
name = fina;
}
);
customParameters = (
{
name = "Write lastChange";
value = 0;
},
{
name = "Don't use Production Names";
value = 1;
},
{
name = "Disable Subroutines";
value = 1;
},
{
name = "Propagate Anchors";
value = 0;
},
{
name = "Write DisplayStrings";
value = 0;
},
{
name = "Use Line Breaks";
value = 1;
},
{
name = "Color Palettes";
value = (
(
(144,41,0,255),
(154,115,18,255),
(71,28,1,255)
)
);
},
{
name = "Virtual Master";
value = (
{
Axis = Shrink;

glyphs = (
{
glyphname = "alef-ar";
layers = (
{
anchors = (
{
name = bottom.hamza;
pos = (498,-130);
},
{
name = top.hamza;
pos = (268,1076);
},
{
name = top.madda;
pos = (-75,1076);
}
);
backgroundImage = {
imagePath = "images/alef-ar.jpg";
locked = 1;
pos = (-201,-294);
scale = (20,20);
};
layerId = m01;
shapes = (
{
closed = 1;
nodes = (
(106,1166,o),
(66,1128,o),
(20,1080,c),
(30,1036,o),
(40,986,o),
(40,908,cs),
(40,724,o),
(38,516,o),
(38,288,cs),
(38,-168,o),
(824,-170,o),
(1050,294,c),
(754,12,o),
(150,84,o),
(150,442,cs),
(150,592,o),
(160,834,o),
(148,1240,c)
);
}
);
width = 1050;
}
);
unicode = 1575;
},
{
glyphname = "alef-ar.1";
layers = (
{
anchors = (
{
name = bottom.hamza;
pos = (504,-130);
},
{
name = top.hamza;
pos = (268,1038);
},
{
name = top.madda;
pos = (-75,1038);
}
);
layerId = m01;
shapes = (
{
closed = 1;
nodes = (
(100,1166,o),
(66,1088,o),
(20,1040,c),
(30,996,o),
(40,946,o),
(40,868,cs),
(42,684,o),
(46,516,o),
(42,328,cs),
(30,-194,o),
(858,-136,o),
(1080,256,c),
(762,30,o),
(146,74,o),
(156,476,cs),
(160,626,o),
(160,834,o),
(142,1240,c)
);
}
);
width = 1080;
}
);
},
{
glyphname = "alef-ar.fina";
layers = (
{
layerId = m01;
shapes = (
{
closed = 1;
nodes = (
(266,164,l),
(292,132,l),
(188,130,o),
(160,162,o),
(156,210,cs),
(140,416,o),
(162,1086,o),
(154,1240,c),
(130,1168,o),
(72,1100,o),
(20,1058,c),
(46,800,o),
(32,376,o),
(20,44,cs),
(20,20,o),
(46,0,o),
(80,0,cs),
(280,0,l),
(264,-40,l)
);
}
);
width = 156;
}
);
},
{
color = 1;
glyphname = "alef-ar.fina.1";
layers = (
{
layerId = m01;
shapes = (
{
closed = 1;
nodes = (
(266,164,l),
(292,132,l),
(188,130,o),
(160,162,o),
(156,210,cs),
(140,416,o),
(162,1086,o),
(154,1240,c),
(130,1168,o),
(72,1100,o),
(20,1058,c),
(46,800,o),
(32,376,o),
(20,44,cs),
(20,20,o),
(46,0,o),
(80,0,cs),
(280,0,l),
(264,-40,l)
);
}
);
width = 156;
}
);
},
{
glyphname = "alef-ar.fina.meem";
layers = (
{
layerId = m01;
shapes = (
{
closed = 1;
nodes = (
(140,1228,o),
(92,1168,o),
(40,1126,c),
(66,868,o),
(32,376,o),
(20,44,cs),
(20,20,o),
(46,0,o),
(80,0,cs),
(240,0,l),
(184,-40,l),
(186,202,l),
(248,134,l),
(204,148,o),
(130,182,o),
(132,236,cs),
(138,442,o),
(172,1146,o),
(164,1300,c)
);
}
);
width = 156;
}
);
},
{
glyphname = "behDotless-ar.fina";
layers = (
{
anchors = (
{
name = bottom;
pos = (2188,-60);
},
{
name = kasra;
pos = (1930,-92);
},
{
name = top;
pos = (2228,440);
}
);
layerId = m01;
shapes = (
{
closed = 1;
nodes = (
(2396,210,o),
(2352,412,o),
(2300,522,c),
(2258,456,o),
(2204,396,o),
(2134,358,c),
(2198,278,o),
(2238,192,o),
(2234,84,c),
(2296,150,l),
(2126,122,o),
(1954,122,o),
(1590,118,cs),
(1322,114,o),
(860,118,o),
(398,126,cs),
(336,128,o),
(270,130,o),
(208,152,c),
(148,86,o),
(86,34,o),
(20,6,c),
(408,2,o),
(784,4,o),
(1174,4,cs),
(1592,4,o),
(2008,-2,o),
(2420,0,c),
(2374,-56,l)
);
}
);
width = 2376;
}
);
},
{
glyphname = "behDotless-ar.medi";
layers = (
{
anchors = (
{
name = bottom;
pos = (100,-110);
},
{
name = top;
pos = (48,485);
}
);
backgroundImage = {
alpha = 100;
imagePath = "1/image-0056.jpg";
pos = (-6521,-7013);
scale = (20,20);
};
layerId = m01;
shapes = (
{
closed = 1;
nodes = (
(-45,132,l),
(-20,177,l),
(-20,-36,l),
(-58,0,l),
(284,0,l),
(180,-90,l),
(310,220,l),
(332,154,l),
(264,152,o),
(187,149,o),
(174,230,cs),
(153,358,o),
(135,486,o),
(124,614,c),
(158,634,l),
(90,518,o),
(58,444,o),
(-36,350,c),
(0,430,l),
(8,331,o),
(20,231,o),
(36,132,c)
);
}
);
width = 227;
},
{
anchors = (
{
name = bottom;
pos = (2940,-110);
},
{
name = top;
pos = (2888,485);
}
);
associatedMasterId = m01;
attr = {
coordinates = (
0,
100
);
};
backgroundImage = {
alpha = 100;
imagePath = "1/image-0056.jpg";
locked = 1;
pos = (-3681,-7013);
scale = (20,20);
};
layerId = "86E49FB5-E58F-46D6-9294-1FA5FA1F9D58";
name = "{0, 100}";
shapes = (
{
closed = 1;
nodes = (
(-45,132,l),
(-20,177,l),
(-20,-36,l),
(-58,0,l),
(3124,0,l),
(3020,-90,l),
(3150,220,l),
(3172,154,l),
(3104,152,o),
(3027,149,o),
(3014,230,cs),
(2993,358,o),
(2975,486,o),
(2964,614,c),
(2998,634,l),
(2930,518,o),
(2898,444,o),
(2804,350,c),
(2840,430,l),
(2848,331,o),
(2860,231,o),
(2876,132,c)
);
}
);
width = 3067;
}
);
},
{
glyphname = "behDotless-ar.medi.ain";
layers = (
{
anchors = (
{
name = bottom;
pos = (100,-110);
},
{
name = top;
pos = (68,478);
}
);
layerId = m01;
shapes = (
{
closed = 1;
nodes = (
(0,132,l),
(0,-36,l),
(-58,0,l),
(284,0,l),
(180,-90,l),
(310,220,l),
(332,134,l),
(264,132,o),
(212,134,o),
(184,210,cs),
(154,294,o),
(118,476,o),
(124,614,c),
(158,584,l),
(90,468,o),
(58,384,o),
(-36,290,c),
(0,430,l),
(14,336,o),
(22,214,o),
(46,132,c)
);
}
);
width = 210;
}
);
},
{
glyphname = "behDotless-ar.medi.kaf";
layers = (
{
anchors = (
{
name = bottom;
pos = (100,-42);
},
{
name = top;
pos = (68,478);
}
);
layerId = m01;
shapes = (
{
closed = 1;
nodes = (
(0,132,l),
(0,-36,l),
(-58,0,l),
(284,0,l),
(180,-90,l),
(310,220,l),
(332,134,l),
(264,132,o),
(196,122,o),
(168,198,cs),
(142,270,o),
(128,424,o),
(124,550,c),
(86,484,o),
(56,430,o),
(8,372,c),
(16,290,o),
(26,198,o),
(36,132,c)
);
}
);
width = 200;
}
);
},
{
glyphname = "behDotless-ar.medi.lam";
layers = (
{
anchors = (
{
name = bottom;
pos = (88,-42);
},
{
name = top;
pos = (116,426);
}
);
layerId = m01;
shapes = (
{
closed = 1;
nodes = (
(0,132,l),
(0,-76,l),
(-50,0,l),
(272,0,l),
(168,-90,l),
(298,220,l),
(320,152,l),
(252,150,o),
(184,152,o),
(180,210,cs),
(174,294,o),
(178,478,o),
(176,610,c),
(206,544,l),
(134,428,o),
(66,332,o),
(-28,234,c),
(36,430,l),
(46,132,l)
);
}
);
width = 188;
}
);
},
{
glyphname = "behDotless-ar.medi.meem";
layers = (
{
anchors = (
{
name = bottom;
pos = (100,0);
},
{
name = top;
pos = (48,536);
}
);
layerId = m01;
shapes = (
{
closed = 1;
nodes = (
(310,220,l),
(328,132,l),
(236,132,o),
(196,122,o),
(164,198,cs),
(134,270,o),
(114,482,o),
(110,608,c),
(72,542,o),
(38,488,o),
(-10,430,c),
(-10,316,o),
(-4,202,o),
(10,88,cs),
(14,56,o),
(36,0,o),
(100,0,c),
(284,0,l),
(180,-90,l)
);
}
);
width = 200;
}
);
},
{
glyphname = "behDotless-ar.init";
layers = (
{
anchors = (
{
name = bottom;
pos = (110,38);
},
{
name = fatha;
pos = (82,700);
},
{
name = top;
pos = (44,470);
}
);
layerId = m01;
shapes = (
{
closed = 1;
nodes = (
(-58,0,l),
(110,0,l),
(132,0,o),
(148,14,o),
(148,36,cs),
(148,358,o),
(152,434,o),
(86,670,c),
(142,612,l),
(86,514,o),
(28,430,o),
(-42,362,c),
(-46,444,l),
(24,304,o),
(8,282,o),
(8,84,c),
(64,132,l),
(-54,132,l),
(-20,242,l),
(-20,-30,l)
);
}
);
width = 168;
},
{
anchors = (
{
name = bottom;
pos = (2950,38);
},
{
name = fatha;
pos = (2922,700);
},
{
name = top;
pos = (2884,470);
}
);
associatedMasterId = m01;
layerId = "ABAB2150-620C-418B-B3ED-83100A3DA3F3";
name = "17 May 21, 05:03";
shapes = (
{
closed = 1;
nodes = (
(-58,0,l),
(2950,0,l),
(2972,0,o),
(2988,14,o),
(2988,36,cs),
(2988,358,o),
(2992,434,o),
(2926,670,c),
(2982,612,l),
(2926,514,o),
(2868,430,o),
(2798,362,c),
(2794,444,l),
(2864,304,o),
(2848,282,o),
(2848,84,c),
(2904,132,l),
(-54,132,l),
(-20,242,l),
(-20,-30,l)
);
}
);
width = 3008;
}
);
},
{
glyphname = "behDotless-ar.init.ain";
layers = (
{
anchors = (
{
name = bottom;
pos = (110,38);
},
{
name = fatha;
pos = (130,800);
},
{
name = top;
pos = (50,602);
}
);
layerId = m01;
shapes = (
{
closed = 1;
nodes = (
(-58,0,l),
(110,0,l),
(132,0,o),
(148,14,o),
(148,36,cs),
(148,358,o),
(152,434,o),
(106,750,c),
(142,738,l),
(86,640,o),
(28,556,o),
(-42,488,c),
(-30,564,l),
(20,410,o),
(10,282,o),
(4,84,c),
(64,132,l),
(-54,132,l),
(-20,242,l),
(-20,-30,l)
);
}
);
width = 168;
}
);
},
{
glyphname = "dal-ar";
layers = (
{
anchors = (
{
name = damma;
pos = (12,226);
}
);
backgroundImage = {
alpha = 100;
imagePath = "1/image-0056.jpg";
pos = (-12937,-3244);
scale = (20,20);
};
layerId = m01;
shapes = (
{
closed = 1;
nodes = (
(427,403,o),
(307,262,o),
(203,145,c),
(164,162,l),
(532,145,o),
(980,146,o),
(1348,152,c),
(1352,150,o),
(1354,146,o),
(1356,140,c),
(974,128,o),
(550,112,o),
(146,136,c),
(226,165,l),
(182,109,o),
(105,49,o),
(20,6,c),
(511,-6,o),
(1044,-1,o),
(1541,-1,cs),
(1561,-1,o),
(1577,21,o),
(1572,51,cs),
(1557,138,o),
(1543,179,o),
(1498,270,c),
(1492,280,o),
(1480,282,o),
(1470,282,cs),
(1132,272,o),
(720,276,o),
(382,288,cs),
(370,288,o),
(368,292,o),
(376,300,cs),
(446,378,o),
(500,446,o),
(552,510,c),
(540,520,l)
);
}
);
width = 1593;
}
);
unicode = 1583;
},
{
glyphname = "dal-ar.fina";
layers = (
{
anchors = (
{
name = damma;
pos = (-18,226);
},
{
name = kasra;
pos = (958,-82);
}
);
layerId = m01;
shapes = (
{
closed = 1;
nodes = (
(424,390,o),
(314,276,o),
(194,166,c),
(448,155,o),
(701,149,o),
(955,149,cs),
(1059,149,o),
(1164,150,o),
(1268,152,c),
(1272,150,o),
(1274,146,o),
(1276,140,c),
(1085,134,o),
(903,129,o),
(718,129,cs),
(544,129,o),
(367,133,o),
(178,144,c),
(136,96,o),
(82,52,o),
(20,6,c),
(331,-1,o),
(642,-6,o),
(952,-6,cs),
(1151,-6,o),
(1349,-4,o),
(1548,0,c),
(1526,-30,l),
(1526,164,l),
(1552,132,l),
(1398,132,l),
(1520,78,l),
(1474,134,o),
(1460,214,o),
(1418,274,cs),
(1412,284,o),
(1400,284,o),
(1390,284,cs),
(1244,280,o),
(1099,278,o),
(954,278,cs),
(764,278,o),
(574,281,o),
(382,288,cs),
(375,288,o),
(371,289,o),
(371,292,cs),
(371,294,o),
(373,297,o),
(376,300,cs),
(446,378,o),
(490,426,o),
(542,490,c),
(530,500,l)
);
}
);
width = 1476;
},
{
anchors = (
{
name = damma;
pos = (-318,226);
},
{
name = kasra;
pos = (658,-82);
}
);
associatedMasterId = m01;
attr = {
coordinates = (
100,
0
);
};
backgroundImage = {
alpha = 100;
imagePath = "1/image-0056.jpg";
locked = 1;
pos = (-5639,-5176);
scale = (20,20);
};
layerId = "A9B502D6-BD98-4899-95D2-8C8C92379346";
name = "{100, 0}";
shapes = (
{
closed = 1;
nodes = (
(424,390,o),
(314,276,o),
(194,166,c),
(448,155,o),
(551,149,o),
(717,149,cs),
(785,149,o),
(864,150,o),
(968,152,c),
(972,150,o),
(974,146,o),
(976,140,c),
(785,134,o),
(682,129,o),
(575,129,cs),
(473,129,o),
(367,133,o),
(178,144,c),
(136,96,o),
(82,52,o),
(20,6,c),
(331,-1,o),
(530,-6,o),
(754,-6,cs),
(896,-6,o),
(1049,-4,o),
(1248,0,c),
(1226,-30,l),
(1226,164,l),
(1252,132,l),
(1098,132,l),
(1220,78,l),
(1174,134,o),
(1160,214,o),
(1118,274,cs),
(1112,284,o),
(1100,284,o),
(1090,284,cs),
(944,280,o),
(855,278,o),
(774,278,cs),
(667,278,o),
(574,281,o),
(382,288,cs),
(375,288,o),
(371,289,o),
(371,292,cs),
(371,294,o),
(373,297,o),
(376,300,cs),
(446,378,o),
(490,426,o),
(542,490,c),
(530,500,l)
);
}
);
width = 1176;
}
);
},
{
glyphname = "reh-ar";
layers = (
{
anchors = (
{
name = fatha;
pos = (450,652);
},
{
name = top;
pos = (334,382);
}
);
layerId = m01;
shapes = (
{
closed = 1;
nodes = (
(468,490,o),
(458,482,o),
(446,474,cs),
(404,446,o),
(292,322,o),
(240,242,cs),
(232,230,o),
(226,212,o),
(246,204,cs),
(308,176,o),
(400,178,o),
(474,180,c),
(478,176,o),
(480,170,o),
(480,166,c),
(400,154,o),
(284,160,o),
(198,192,c),
(158,144,o),
(80,90,o),
(20,62,c),
(78,14,o),
(458,-26,o),
(618,22,cs),
(658,34,o),
(684,50,o),
(690,90,cs),
(714,240,o),
(590,406,o),
(492,474,cs)
);
}
);
width = 713;
}
);
unicode = 1585;
},
{
glyphname = "reh-ar.1";
layers = (
{
anchors = (
{
name = fatha;
pos = (460,652);
},
{
name = top;
pos = (344,382);
}
);
backgroundImage = {
alpha = 100;
imagePath = "1/image-0056.jpg";
locked = 1;
pos = (-9988,-7023);
scale = (20,20);
};
layerId = m01;
shapes = (
{
closed = 1;
nodes = (
(449,403,o),
(431,405,o),
(420,394,cs),
(382,356,o),
(296,232,o),
(240,162,cs),
(231,151,o),
(216,132,o),
(236,124,cs),
(298,96,o),
(368,98,o),
(442,100,c),
(446,96,o),
(448,90,o),
(448,86,c),
(368,74,o),
(274,80,o),
(188,112,c),
(148,64,o),
(80,-11,o),
(20,-28,c),
(48,-88,o),
(448,-78,o),
(558,-50,cs),
(648,-27,o),
(678,10,o),
(684,61,cs),
(693,141,o),
(528,337,o),
(459,394,cs)
);
}
);
width = 704;
}
);
},
{
glyphname = "reh-ar.fina";
layers = (
{
anchors = (
{
name = fatha;
pos = (432,372);
},
{
name = top;
pos = (322,200);
}
);
layerId = m01;
shapes = (
{
closed = 1;
nodes = (
(434,288,o),
(424,284,o),
(414,276,cs),
(382,250,o),
(272,128,o),
(222,56,cs),
(214,46,o),
(202,28,o),
(220,22,cs),
(276,2,o),
(364,-2,o),
(430,0,c),
(434,-4,o),
(436,-14,o),
(436,-18,c),
(364,-30,o),
(258,-24,o),
(180,4,c),
(144,-38,o),
(74,-102,o),
(20,-126,c),
(74,-170,o),
(416,-192,o),
(560,-154,cs),
(596,-144,o),
(636,-120,o),
(642,-84,cs),
(664,52,o),
(548,214,o),
(454,276,cs)
);
}
);
width = 568;
}
);
},
{
glyphname = "seen-ar.init";
layers = (
{
anchors = (
{
name = damma;
pos = (-16,255);
},
{
name = top;
pos = (199,277);
}
);
layerId = m01;
shapes = (
{
closed = 1;
nodes = (
(461,228,o),
(458,409,o),
(443,581,c),
(468,572,l),
(418,467,o),
(352,363,o),
(291,309,c),
(324,412,l),
(335,318,o),
(335,230,o),
(338,134,c),
(359,145,l),
(295,235,o),
(293,402,o),
(264,556,c),
(304,539,l),
(276,410,o),
(204,292,o),
(150,216,c),
(150,339,l),
(162,277,o),
(163,156,o),
(207,94,c),
(215,123,l),
(133,195,o),
(114,352,o),
(78,459,c),
(125,514,l),
(86,417,o),
(37,250,o),
(-29,180,c),
(-47,310,l),
(-23,242,o),
(17,163,o),
(45,130,c),
(67,70,l),
(91,132,l),
(-40,132,l),
(-20,161,l),
(-20,-26,l),
(-40,0,l),
(436,0,ls),
(462,0,o),
(474,31,o),
(472,56,cs)
);
}
);
width = 492;
}
);
},
{
glyphname = "ain-ar.medi";
layers = (
{
layerId = m01;
shapes = (
{
closed = 1;
nodes = (
(308,160,l),
(340,132,l),
(192,132,l),
(262,100,l),
(272,234,o),
(264,408,o),
(230,546,c),
(172,466,o),
(104,392,o),
(32,326,c),
(146,320,l),
(78,364,o),
(8,418,o),
(-36,482,c),
(-84,418,o),
(-134,354,o),
(-194,306,c),
(-126,238,o),
(-48,176,o),
(36,120,c),
(66,132,l),
(-50,132,l),
(-20,154,l),
(-20,-30,l),
(-50,0,l),
(340,0,l),
(308,-40,l)
);
}
);
width = 280;
}
);
},
{
glyphname = "ain-ar.init";
layers = (
{
anchors = (
{
name = fatha;
pos = (120,618);
}
);
layerId = m01;
shapes = (
{
closed = 1;
nodes = (
(18,302,ls),
(-45,233,o),
(30,124,o),
(128,104,c),
(160,132,l),
(-66,132,l),
(-20,198,l),
(-20,-36,l),
(-72,0,l),
(272,-4,o),
(590,-4,o),
(934,0,c),
(1080,114,l),
(864,106,o),
(624,114,o),
(430,162,cs),
(244,208,o),
(97,359,o),
(158,428,cs),
(274,558,l),
(262,570,l)
);
}
);
width = 1100;
}
);
},
{
glyphname = "ain-ar.init.1";
layers = (
{
anchors = (
{
name = fatha;
pos = (134,642);
}
);
layerId = m01;
shapes = (
{
closed = 1;
nodes = (
(18,336,ls),
(-45,267,o),
(30,124,o),
(128,104,c),
(160,132,l),
(-66,132,l),
(-20,198,l),
(-20,-36,l),
(-72,0,l),
(272,-4,o),
(590,-4,o),
(934,0,c),
(1122,106,l),
(906,98,o),
(622,108,o),
(428,160,cs),
(242,210,o),
(88,382,o),
(150,452,cs),
(274,592,l),
(262,604,l)
);
}
);
width = 1102;
}
);
},
{
glyphname = "kaf-ar.init";
layers = (
{
backgroundImage = {
alpha = 100;
imagePath = "1/image-0056.jpg";
pos = (-3015,-5236);
scale = (20,20);
};
layerId = m01;
shapes = (
{
closed = 1;
nodes = (
(-78,0,l),
(176,2,o),
(851,9,o),
(1105,9,cs),
(1307,9,o),
(1513,8,o),
(1718,8,cs),
(1752,8,o),
(1814,18,o),
(1814,52,cs),
(1814,104,o),
(1804,158,o),
(1794,208,cs),
(1780,282,o),
(1766,315,o),
(1678,310,cs),
(1430,296,o),
(1001,288,o),
(666,288,cs),
(507,288,o),
(368,290,o),
(280,294,cs),
(244,296,o),
(191,306,o),
(191,330,cs),
(191,334,o),
(192,339,o),
(196,344,cs),
(242,410,o),
(294,486,o),
(340,552,c),
(318,566,l),
(222,444,o),
(128,310,o),
(44,212,cs),
(36,203,o),
(33,196,o),
(33,189,cs),
(33,175,o),
(48,166,o),
(66,162,cs),
(85,158,o),
(111,158,o),
(139,158,cs),
(157,158,o),
(177,158,o),
(196,158,cs),
(321,159,o),
(547,160,o),
(784,160,cs),
(1071,160,o),
(1376,158,o),
(1544,150,c),
(1546,146,o),
(1546,144,o),
(1544,140,c),
(1002,136,o),
(462,136,o),
(-80,132,c),
(0,222,l),
(0,-90,l)
);
}
);
width = 1834;
},
{
associatedMasterId = m01;
backgroundImage = {
alpha = 100;
imagePath = "1/image-0056.jpg";
pos = (-3319,-5176);
scale = (20,20);
};
layerId = "B8BA4F85-A6BE-4284-99F4-178241BCA683";
name = foo;
shapes = (
{
closed = 1;
nodes = (
(-78,0,l),
(65,1,o),
(208,3,o),
(351,4,cs),
(483,5,o),
(616,8,o),
(748,8,cs),
(782,8,o),
(844,18,o),
(844,52,cs),
(844,104,o),
(834,158,o),
(824,208,cs),
(810,282,o),
(796,312,o),
(708,310,c),
(633,307,o),
(558,307,o),
(483,306,cs),
(415,305,o),
(348,304,o),
(280,302,cs),
(238,301,o),
(172,310,o),
(196,344,cs),
(242,410,o),
(294,486,o),
(340,552,c),
(328,566,l),
(232,444,o),
(138,310,o),
(54,212,cs),
(30,184,o),
(38,162,o),
(66,162,cs),
(98,162,o),
(148,158,o),
(196,158,cs),
(260,158,o),
(325,160,o),
(390,162,cs),
(465,165,o),
(539,167,o),
(614,168,c),
(616,164,o),
(616,154,o),
(614,150,c),
(463,139,o),
(77,133,o),
(-80,132,c),
(0,222,l),
(0,-90,l)
);
}
);
visible = 1;
width = 864;
},
{
associatedMasterId = m01;
attr = {
coordinates = (
100,
0
);
};
backgroundImage = {
alpha = 100;
imagePath = "1/image-0056.jpg";
pos = (-3319,-5176);
scale = (20,20);
};
layerId = "B148EE45-354A-452E-A76A-590C279F9F5C";
name = "{100, 0} 16 May 21, 21:57";
shapes = (
{
closed = 1;
nodes = (
(-78,0,l),
(183,2,o),
(325,4,o),
(435,5,cs),
(743,8,o),
(614,8,o),
(749,8,cs),
(783,8,o),
(845,18,o),
(845,52,cs),
(845,104,o),
(835,158,o),
(825,208,cs),
(811,282,o),
(797,313,o),
(709,310,cs),
(561,305,o),
(521,305,o),
(438,305,cs),
(397,305,o),
(355,303,o),
(280,302,cs),
(244,302,o),
(191,306,o),
(191,330,cs),
(191,334,o),
(192,339,o),
(196,344,cs),
(242,410,o),
(294,486,o),
(340,552,c),
(328,566,l),
(232,444,o),
(138,310,o),
(54,212,cs),
(46,203,o),
(40,190,o),
(40,183,cs),
(40,169,o),
(48,163,o),
(66,162,cs),
(105,159,o),
(177,158,o),
(196,158,cs),
(221,158,o),
(357,162,o),
(395,163,cs),
(471,165,o),
(576,169,o),
(614,168,c),
(615,166,o),
(616,162,o),
(616,159,cs),
(616,155,o),
(615,151,o),
(614,149,c),
(463,139,o),
(77,133,o),
(-80,132,c),
(0,222,l),
(0,-90,l)
);
}
);
width = 864;
},
{
associatedMasterId = m01;
backgroundImage = {
alpha = 100;
imagePath = "1/image-0056.jpg";
pos = (-3015,-5236);
scale = (20,20);
};
layerId = "95D6FC64-EA15-4FF1-A4AA-3EEFE8D5718C";
name = "16 May 21, 21:57";
shapes = (
{
closed = 1;
nodes = (
(-78,0,l),
(210,2,o),
(504,6,o),
(804,8,cs),
(1102,10,o),
(1410,8,o),
(1718,8,cs),
(1752,8,o),
(1814,18,o),
(1814,52,cs),
(1814,104,o),
(1804,158,o),
(1794,208,cs),
(1780,282,o),
(1766,312,o),
(1678,310,cs),
(1442,302,o),
(1162,290,o),
(914,288,cs),
(682,286,o),
(452,286,o),
(280,294,cs),
(238,296,o),
(172,310,o),
(196,344,cs),
(242,410,o),
(294,486,o),
(340,552,c),
(318,566,l),
(222,444,o),
(128,310,o),
(44,212,cs),
(20,184,o),
(40,168,o),
(66,162,cs),
(98,156,o),
(148,158,o),
(196,158,cs),
(488,160,o),
(782,158,o),
(1008,160,cs),
(1230,162,o),
(1388,156,o),
(1544,150,c),
(1546,146,o),
(1546,144,o),
(1544,140,c),
(1002,136,o),
(462,136,o),
(-80,132,c),
(0,222,l),
(0,-90,l)
);
}
);
width = 1834;
}
);
},
{
glyphname = "lam-ar.medi";
layers = (
{
anchors = (
{
name = fatha;
pos = (-182,1132);
},
{
name = kasra;
pos = (110,-81);
}
);
backgroundImage = {
alpha = 100;
imagePath = "1/image-0056.jpg";
locked = 1;
pos = (-3518,-7010);
scale = (20,20);
};
layerId = m01;
shapes = (
{
closed = 1;
nodes = (
(-77,0,l),
(82,0,l),
(263,0,l),
(218,-45,l),
(218,177,l),
(248,135,l),
(160,119,o),
(124,168,o),
(124,300,cs),
(124,572,o),
(131,948,o),
(108,1312,c),
(126,1299,l),
(85,1207,o),
(23,1117,o),
(-54,1066,c),
(-30,1119,l),
(7,1035,o),
(8,890,o),
(9,746,cs),
(12,83,l),
(77,132,l),
(-92,132,l),
(-30,150,l),
(-30,-34,l)
);
}
);
width = 158;
}
);
},
{
glyphname = "lam-ar.medi.ain";
layers = (
{
anchors = (
{
name = fatha;
pos = (-172,1132);
}
);
layerId = m01;
shapes = (
{
closed = 1;
nodes = (
(372,0,l),
(372,132,l),
(230,132,l),
(366,116,l),
(288,160,o),
(170,244,o),
(124,300,c),
(136,564,o),
(150,926,o),
(112,1280,c),
(76,1210,o),
(26,1150,o),
(-24,1104,c),
(8,1006,o),
(18,750,o),
(18,576,cs),
(18,402,o),
(6,230,o),
(-2,56,cs),
(-4,30,o),
(18,-2,o),
(92,0,c)
);
}
);
width = 350;
}
);
},
{
glyphname = "lam-ar.init";
layers = (
{
backgroundImage = {
alpha = 100;
imagePath = "1/image-0056.jpg";
locked = 1;
pos = (-8980,-8864);
scale = (20,20);
};
layerId = m01;
shapes = (
{
closed = 1;
nodes = (
(-48,0,l),
(112,0,ls),
(130,0,o),
(158,12,o),
(158,30,cs),
(156,172,o),
(150,392,o),
(148,572,cs),
(146,794,o),
(162,1018,o),
(144,1240,c),
(104,1168,o),
(64,1100,o),
(10,1048,c),
(26,994,o),
(34,934,o),
(34,820,cs),
(34,630,o),
(30,382,o),
(24,132,c),
(-46,134,l),
(-20,180,l),
(-20,-34,l)
);
}
);
width = 178;
}
);
},
{
glyphname = "meem-ar.fina";
layers = (
{
layerId = m01;
shapes = (
{
closed = 1;
nodes = (
(928,-22,o),
(956,22,o),
(956,142,cs),
(956,304,o),
(854,500,o),
(710,500,cs),
(562,500,o),
(420,318,o),
(420,128,cs),
(420,2,o),
(572,-22,o),
(694,-22,cs)
);
},
{
closed = 1;
nodes = (
(478,130,l),
(392,126,o),
(302,128,o),
(214,152,c),
(158,94,o),
(92,50,o),
(20,8,c),
(232,-6,o),
(484,-22,o),
(694,-22,c)
);
},
{
closed = 1;
nodes = (
(694,234,o),
(688,240,o),
(688,247,cs),
(688,254,o),
(694,260,o),
(701,260,cs),
(708,260,o),
(714,254,o),
(714,247,cs),
(714,240,o),
(708,234,o),
(701,234,cs)
);
}
);
width = 950;
},
{
associatedMasterId = m01;
layerId = "E0CE7A6A-A561-47FC-A655-1D4A4B2AE5B5";
name = "26 Apr 21, 22:21";
shapes = (
{
closed = 1;
nodes = (
(914,-24,o),
(956,10,o),
(956,128,cs),
(956,290,o),
(850,486,o),
(708,486,cs),
(564,486,o),
(442,324,o),
(442,114,cs),
(442,8,o),
(530,-24,o),
(708,-24,cs)
);
},
{
closed = 1;
nodes = (
(706,210,o),
(702,214,o),
(702,224,cs),
(702,232,o),
(706,236,o),
(716,236,cs),
(724,236,o),
(728,232,o),
(728,224,cs),
(728,214,o),
(724,210,o),
(716,210,cs)
);
}
);
width = 950;
},
{
associatedMasterId = m01;
layerId = "68EBDF7B-15A5-46E4-9C57-C98FC85622D4";
name = "26 Apr 21, 22:20";
shapes = (
{
closed = 1;
nodes = (
(928,-22,o),
(956,24,o),
(956,142,cs),
(956,304,o),
(854,500,o),
(710,500,cs),
(560,500,o),
(420,318,o),
(420,128,c),
(352,128,o),
(282,134,o),
(214,152,c),
(158,94,o),
(92,50,o),
(20,8,c),
(236,-6,o),
(490,-22,o),
(702,-22,cs)
);
},
{
closed = 1;
nodes = (
(692,234,o),
(688,238,o),
(688,248,cs),
(688,256,o),
(692,260,o),
(702,260,cs),
(710,260,o),
(714,256,o),
(714,248,cs),
(714,238,o),
(710,234,o),
(702,234,cs)
);
}
);
width = 950;
}
);
},
{
glyphname = "meem-ar.medi";
layers = (
{
layerId = m01;
shapes = (
{
closed = 1;
nodes = (
(294,0,l),
(500,0,o),
(528,8,o),
(528,126,cs),
(528,288,o),
(374,468,o),
(274,468,cs),
(150,468,o),
(0,322,o),
(0,112,c),
(0,0,l)
);
},
{
closed = 1;
nodes = (
(294,208,o),
(288,214,o),
(288,221,cs),
(288,228,o),
(294,234,o),
(301,234,cs),
(308,234,o),
(314,228,o),
(314,221,cs),
(314,214,o),
(308,208,o),
(301,208,cs)
);
}
);
width = 518;
}
);
},
{
glyphname = "meem-ar.medi.alt";
layers = (
{
background = {
backgroundImage = {
imagePath = "1/image-0056.jpg";
locked = 1;
pos = (-5497,-4420);
scale = (10,10);
};
};
layerId = m01;
shapes = (
{
closed = 1;
nodes = (
(470,-26,o),
(516,8,o),
(516,126,cs),
(516,288,o),
(406,484,o),
(264,484,cs),
(120,484,o),
(-2,322,o),
(-2,112,cs),
(-2,6,o),
(86,-26,o),
(264,-26,cs)
);
},
{
closed = 1;
nodes = (
(264,208,o),
(258,214,o),
(258,221,cs),
(258,228,o),
(264,234,o),
(271,234,cs),
(278,234,o),
(284,228,o),
(284,221,cs),
(284,214,o),
(278,208,o),
(271,208,cs)
);
}
);
width = 510;
}
);
},
{
glyphname = "meem-ar.init";
layers = (
{
anchors = (
{
name = kasra;
pos = (350,-164);
}
);
backgroundImage = {
alpha = 100;
imagePath = "1/image-0056.jpg";
locked = 1;
pos = (-6741,-7014);
scale = (20,20);
};
layerId = m01;
shapes = (
{
closed = 1;
nodes = (
(504,-6,o),
(516,28,o),
(516,111,cs),
(516,308,o),
(390,523,o),
(268,523,cs),
(128,523,o),
(-16,342,o),
(-2,158,cs),
(6,50,o),
(100,-6,o),
(302,-6,cs)
);
},
{
closed = 1;
nodes = (
(269,242,o),
(263,248,o),
(263,255,cs),
(263,262,o),
(269,268,o),
(276,268,cs),
(283,268,o),
(289,262,o),
(289,255,cs),
(289,248,o),
(283,242,o),
(276,242,cs)
);
},
{
closed = 1;
nodes = (
(-20,0,l),
(302,0,l),
(302,132,l),
(-20,132,l)
);
}
);
width = 556;
}
);
},
{
glyphname = "meem-ar.init.alt";
layers = (
{
anchors = (
{
name = kasra;
pos = (350,-164);
}
);
backgroundImage = {
alpha = 100;
imagePath = "1/image-0056.jpg";
locked = 1;
pos = (-11512,-8844);
scale = (20,20);
};
layerId = m01;
shapes = (
{
closed = 1;
nodes = (
(504,-6,o),
(536,28,o),
(536,146,cs),
(536,308,o),
(420,504,o),
(278,504,cs),
(128,504,o),
(-16,342,o),
(-2,158,cs),
(6,50,o),
(100,-6,o),
(302,-6,cs)
);
},
{
closed = 1;
nodes = (
(284,232,o),
(278,238,o),
(278,245,cs),
(278,252,o),
(284,258,o),
(291,258,cs),
(298,258,o),
(304,252,o),
(304,245,cs),
(304,238,o),
(298,232,o),
(291,232,cs)
);
}
);
width = 556;
}
);
},
{
glyphname = "noonghunna-ar";
layers = (
{
anchors = (
{
name = fatha;
pos = (134,342);
},
{
name = kasra;
pos = (558,-413);
},
{
name = top;
pos = (78,210);
}
);
backgroundImage = {
alpha = 100;
imagePath = "1/image-0056.jpg";
pos = (-11079,-3240);
scale = (20,20);
};
layerId = m01;
shapes = (
{
closed = 1;
nodes = (
(418,-882,o),
(430,-862,o),
(430,-838,cs),
(430,-592,o),
(442,-346,o),
(438,-100,cs),
(434,138,o),
(348,256,o),
(158,316,c),
(20,136,l),
(124,120,o),
(240,64,o),
(282,-44,cs),
(338,-190,o),
(322,-474,o),
(306,-724,c),
(218,-732,o),
(122,-720,o),
(40,-692,c),
(2,-758,o),
(-46,-820,o),
(-106,-866,c),
(48,-908,o),
(238,-908,o),
(390,-886,cs)
);
}
);
width = 459;
}
);
unicode = 1722;
},
{
glyphname = "noonghunna-ar.1";
layers = (
{
anchors = (
{
name = fatha;
pos = (134,342);
},
{
name = kasra;
pos = (558,-413);
},
{
name = top;
pos = (78,250);
}
);
backgroundImage = {
alpha = 100;
imagePath = "1/image-0056.jpg";
locked = 1;
pos = (-11079,-3240);
scale = (20,20);
};
layerId = m01;
shapes = (
{
closed = 1;
nodes = (
(428,-882,o),
(440,-862,o),
(440,-838,cs),
(440,-592,o),
(435,-306,o),
(431,-60,cs),
(427,191,o),
(338,289,o),
(126,345,c),
(185,382,l),
(-7,130,l),
(-8,159,l),
(102,150,o),
(236,94,o),
(282,-24,cs),
(338,-170,o),
(322,-474,o),
(306,-724,c),
(208,-733,o),
(131,-737,o),
(13,-702,c),
(104,-666,l),
(64,-742,o),
(-14,-837,o),
(-88,-894,c),
(-94,-869,l),
(59,-908,o),
(252,-907,o),
(400,-886,cs)
);
}
);
width = 459;
}
);
},
{
glyphname = "heh-ar";
layers = (
{
anchors = (
{
name = kasra;
pos = (321,-94);
}
);
backgroundImage = {
alpha = 100;
imagePath = "1/image-0056.jpg";
locked = 1;
pos = (-9106,-7020);
scale = (20,20);
};
layerId = m01;
shapes = (
{
closed = 1;
nodes = (
(440,17,o),
(495,37,o),
(498,73,cs),
(508,205,o),
(465,748,o),
(434,887,c),
(479,827,l),
(431,716,o),
(367,608,o),
(284,528,c),
(313,666,l),
(361,417,l),
(402,523,l),
(233,502,o),
(20,400,o),
(20,193,cs),
(20,36,o),
(228,-31,o),
(405,9,cs)
);
},
{
closed = 1;
nodes = (
(302,260,o),
(296,266,o),
(296,273,cs),
(296,280,o),
(302,286,o),
(309,286,cs),
(316,286,o),
(322,280,o),
(322,273,cs),
(322,266,o),
(316,260,o),
(309,260,cs)
);
}
);
width = 519;
}
);
unicode = 1607;
},
{
glyphname = "heh-ar.fina";
layers = (
{
anchors = (
{
name = kasra;
pos = (149,-66);
}
);
backgroundImage = {
alpha = 100;
imagePath = "1/image-0056.jpg";
pos = (-3001,-7024);
scale = (20,20);
};
layerId = m01;
shapes = (
{
closed = 1;
nodes = (
(560,212,l),
(599,171,l),
(551,171,o),
(505,173,o),
(505,248,cs),
(508,842,l),
(517,818,l),
(463,720,o),
(401,632,o),
(328,580,c),
(358,706,l),
(357,439,l),
(406,540,l),
(247,495,o),
(20,419,o),
(20,183,cs),
(20,61,o),
(136,-1,o),
(267,0,cs),
(373,1,o),
(480,1,o),
(586,0,c),
(560,-81,l)
);
},
{
closed = 1;
nodes = (
(269,266,o),
(263,272,o),
(263,279,cs),
(263,286,o),
(269,292,o),
(276,292,cs),
(283,292,o),
(289,286,o),
(289,279,cs),
(289,272,o),
(283,266,o),
(276,266,cs)
);
}
);
width = 540;
}
);
},
{
glyphname = "heh-ar.medi";
layers = (
{
layerId = m01;
shapes = (
{
closed = 1;
nodes = (
(-85,0,l),
(530,0,l),
(500,-49,l),
(489,194,l),
(509,132,l),
(-74,132,l),
(0,184,l),
(0,-63,l)
);
},
{
closed = 1;
nodes = (
(274,218,o),
(268,224,o),
(268,231,cs),
(268,238,o),
(274,244,o),
(281,244,cs),
(288,244,o),
(294,238,o),
(294,231,cs),
(294,224,o),
(288,218,o),
(281,218,cs)
);
},
{
closed = 1;
nodes = (
(244,380,o),
(238,386,o),
(238,393,cs),
(238,400,o),
(244,406,o),
(251,406,cs),
(258,406,o),
(264,400,o),
(264,393,cs),
(264,386,o),
(258,380,o),
(251,380,cs)
);
},
{
closed = 1;
nodes = (
(247,515,l),
(288,569,l),
(124,472,o),
(-8,344,o),
(12,196,cs),
(29,72,o),
(168,-20,o),
(313,-20,cs),
(358,-20,o),
(426,-20,o),
(464,6,cs),
(480,18,o),
(495,34,o),
(491,53,cs),
(466,158,o),
(415,336,o),
(341,837,c),
(372,818,l),
(311,659,o),
(282,629,o),
(220,549,c),
(229,615,l)
);
}
);
width = 478;
}
);
},
{
glyphname = "waw-ar";
layers = (
{
anchors = (
{
name = fatha;
pos = (390,729);
}
);
backgroundImage = {
alpha = 100;
imagePath = "1/image-0056.jpg";
pos = (-15140,-5096);
scale = (20,20);
};
layerId = m01;
shapes = (
{
closed = 1;
nodes = (
(738,22,o),
(740,42,o),
(748,68,cs),
(788,194,o),
(678,610,o),
(456,610,cs),
(284,610,o),
(180,406,o),
(212,266,cs),
(244,130,o),
(444,132,o),
(584,146,c),
(588,138,o),
(588,136,o),
(588,128,c),
(438,108,o),
(282,110,o),
(190,192,c),
(142,118,o),
(84,86,o),
(20,52,c),
(154,-42,o),
(622,4,o),
(670,12,cs)
);
},
{
closed = 1;
nodes = (
(460,356,o),
(454,362,o),
(454,369,cs),
(454,376,o),
(460,382,o),
(467,382,cs),
(474,382,o),
(480,376,o),
(480,369,cs),
(480,362,o),
(474,356,o),
(467,356,cs)
);
}
);
width = 776;
}
);
unicode = 1608;
},
{
glyphname = "waw-ar.1";
layers = (
{
anchors = (
{
name = fatha;
pos = (390,669);
}
);
backgroundImage = {
alpha = 100;
imagePath = "1/image-0056.jpg";
pos = (-15140,-5156);
scale = (20,20);
};
layerId = m01;
shapes = (
{
closed = 1;
nodes = (
(514,-64,o),
(636,-62,o),
(718,-22,cs),
(750,-6,o),
(788,20,o),
(784,126,cs),
(776,314,o),
(618,570,o),
(472,570,cs),
(300,570,o),
(194,366,o),
(216,226,cs),
(240,68,o),
(468,72,o),
(608,88,c),
(612,80,o),
(612,78,o),
(612,70,c),
(462,48,o),
(296,56,o),
(204,138,c),
(146,66,o),
(76,38,o),
(20,24,c),
(92,-32,o),
(276,-58,o),
(426,-62,cs)
);
},
{
closed = 1;
nodes = (
(468,312,o),
(462,318,o),
(462,325,cs),
(462,332,o),
(468,338,o),
(475,338,cs),
(482,338,o),
(488,332,o),
(488,325,cs),
(488,318,o),
(482,312,o),
(475,312,cs)
);
}
);
width = 804;
}
);
},
{
glyphname = "waw-ar.fina";
layers = (
{
layerId = m01;
shapes = (
{
closed = 1;
nodes = (
(504,-150,o),
(616,-140,o),
(686,-106,cs),
(730,-84,o),
(756,-68,o),
(762,38,cs),
(774,226,o),
(608,482,o),
(462,482,cs),
(306,482,o),
(190,278,o),
(222,138,cs),
(254,2,o),
(458,-6,o),
(598,8,c),
(602,0,o),
(602,-2,o),
(602,-10,c),
(452,-30,o),
(298,-18,o),
(206,64,c),
(148,-10,o),
(84,-30,o),
(20,-58,c),
(92,-110,o),
(266,-144,o),
(416,-148,cs)
);
},
{
closed = 1;
nodes = (
(452,230,o),
(446,236,o),
(446,243,cs),
(446,250,o),
(452,256,o),
(459,256,cs),
(466,256,o),
(472,250,o),
(472,243,cs),
(472,236,o),
(466,230,o),
(459,230,cs)
);
}
);
width = 756;
}
);
},
{
glyphname = "waw-ar.fina.1";
layers = (
{
layerId = m01;
shapes = (
{
closed = 1;
nodes = (
(738,-116,o),
(740,-96,o),
(748,-70,cs),
(788,56,o),
(678,472,o),
(456,472,cs),
(284,472,o),
(180,268,o),
(212,128,cs),
(244,-8,o),
(444,-6,o),
(584,8,c),
(588,0,o),
(588,-2,o),
(588,-10,c),
(438,-30,o),
(282,-28,o),
(190,54,c),
(142,-20,o),
(84,-52,o),
(20,-86,c),
(154,-180,o),
(622,-134,o),
(670,-126,cs)
);
},
{
closed = 1;
nodes = (
(460,218,o),
(454,224,o),
(454,231,cs),
(454,238,o),
(460,244,o),
(467,244,cs),
(474,244,o),
(480,238,o),
(480,231,cs),
(480,224,o),
(474,218,o),
(467,218,cs)
);
}
);
width = 740;
}
);
},
{
glyphname = "waw-ar.fina.alt";
layers = (
{
anchors = (
{
name = fatha;
pos = (424,600);
}
);
backgroundImage = {
alpha = 100;
imagePath = "1/image-0056.jpg";
pos = (-9512,-5199);
scale = (20,20);
};
layerId = m01;
shapes = (
{
closed = 1;
nodes = (
(718,-146,o),
(784,-62,o),
(742,30,cs),
(702,118,o),
(672,212,o),
(618,300,cs),
(578,364,o),
(534,436,o),
(436,436,cs),
(286,436,o),
(174,250,o),
(206,110,cs),
(238,-26,o),
(434,-50,o),
(574,-36,c),
(578,-44,o),
(578,-46,o),
(578,-54,c),
(428,-74,o),
(256,-44,o),
(164,38,c),
(136,-32,o),
(74,-72,o),
(10,-86,c),
(204,-226,o),
(580,-178,o),
(660,-160,cs)
);
},
{
closed = 1;
nodes = (
(450,178,o),
(444,184,o),
(444,191,cs),
(444,198,o),
(450,204,o),
(457,204,cs),
(464,204,o),
(470,198,o),
(470,191,cs),
(470,184,o),
(464,178,o),
(457,178,cs)
);
},
{
closed = 1;
nodes = (
(623,0,l),
(837,0,l),
(814,-29,l),
(806,167,l),
(833,127,l),
(725,104,o),
(687,165,o),
(663,215,c),
(669,-43,l)
);
}
);
width = 702;
}
);
},
{
glyphname = "kashida-ar";
layers = (
{
layerId = m01;
shapes = (
{
closed = 1;
nodes = (
(-60,0,l),
(286,0,l),
(220,-50,l),
(220,180,l),
(286,132,l),
(-60,132,l),
(0,178,l),
(0,-56,l)
);
}
);
width = 200;
}
);
unicode = 1600;
},
{
glyphname = "behDotless_reh-ar";
layers = (
{
anchors = (
{
name = bottom_1;
pos = (686,34);
},
{
name = caret_1;
pos = (544,0);
},
{
name = fatha_1;
pos = (646,702);
},
{
name = fatha_2;
pos = (426,376);
},
{
name = top_1;
pos = (614,474);
},
{
name = top_2;
pos = (324,200);
}
);
layerId = m01;
shapes = (
{
closed = 1;
nodes = (
(658,520,o),
(600,436,o),
(530,368,c),
(514,564,l),
(564,410,o),
(584,282,o),
(576,84,c),
(636,132,l),
(518,132,l),
(552,242,l),
(552,-30,l),
(514,0,l),
(682,0,l),
(704,0,o),
(722,14,o),
(722,36,cs),
(726,358,o),
(714,442,o),
(652,750,c),
(714,618,l)
);
},
{
closed = 1;
nodes = (
(434,288,o),
(424,284,o),
(414,276,cs),
(382,250,o),
(272,128,o),
(222,56,cs),
(214,46,o),
(202,28,o),
(220,22,cs),
(276,2,o),
(364,-2,o),
(430,0,c),
(434,-4,o),
(436,-14,o),
(436,-18,c),
(364,-30,o),
(258,-24,o),
(180,4,c),
(144,-38,o),
(74,-102,o),
(20,-126,c),
(74,-170,o),
(416,-192,o),
(560,-154,cs),
(596,-144,o),
(636,-120,o),
(642,-84,cs),
(664,52,o),
(548,214,o),
(454,276,cs)
);
}
);
width = 743;
}
);
},
{
glyphname = "behDotless_seen-ar.init";
layers = (
{
anchors = (
{
name = bottom_1;
pos = (566,-5);
},
{
name = caret_1;
pos = (451,0);
},
{
name = damma_2;
pos = (-26,195);
},
{
name = fatha_1;
pos = (596,800);
},
{
name = kasra_1;
pos = (714,-166);
},
{
name = top_1;
pos = (516,611);
}
);
backgroundImage = {
alpha = 100;
imagePath = "1/image-0056.jpg";
locked = 1;
pos = (-11698,-7050);
scale = (20,20);
};
guides = (
{
pos = (776,132);
}
);
layerId = m01;
shapes = (
{
closed = 1;
nodes = (
(408,0,l),
(576,0,l),
(598,0,o),
(614,14,o),
(614,36,cs),
(614,358,o),
(618,434,o),
(572,750,c),
(608,763,l),
(552,665,o),
(494,556,o),
(424,488,c),
(443,564,l),
(485,411,o),
(476,282,o),
(470,84,c),
(530,132,l),
(412,132,l),
(446,-30,l)
);
},
{
closed = 1;
nodes = (
(499,151,l),
(443,246,o),
(438,454,o),
(433,571,c),
(468,572,l),
(418,467,o),
(352,363,o),
(291,309,c),
(308,417,l),
(308,333,o),
(322,249,o),
(353,165,c),
(301,258,o),
(272,413,o),
(245,556,c),
(278,564,l),
(250,435,o),
(192,303,o),
(138,227,c),
(150,339,l),
(160,286,o),
(175,233,o),
(206,180,c),
(143,252,o),
(105,355,o),
(72,452,c),
(125,514,l),
(86,417,o),
(37,250,o),
(-29,180,c),
(-47,310,l),
(-23,242,o),
(17,163,o),
(45,130,c),
(67,70,l),
(91,132,l),
(-40,132,l),
(-20,161,l),
(-20,-26,l),
(-40,0,l),
(496,0,l),
(494,-73,l)
);
}
);
width = 634;
}
);
},
{
glyphname = "behDotless_waw-ar";
layers = (
{
anchors = (
{
name = bottom_1;
pos = (850,98);
},
{
name = caret_1;
pos = (664,0);
},
{
name = fatha_1;
pos = (822,760);
},
{
name = fatha_2;
pos = (434,700);
},
{
name = top_1;
pos = (746,550);
}
);
layerId = m01;
shapes = (
{
closed = 1;
nodes = (
(682,60,l),
(850,60,l),
(872,60,o),
(888,74,o),
(888,96,cs),
(888,418,o),
(842,494,o),
(776,730,c),
(842,680,l),
(786,582,o),
(728,498,o),
(658,430,c),
(650,504,l),
(720,364,o),
(736,342,o),
(736,144,c),
(804,192,l),
(686,192,l),
(720,222,l),
(720,30,l)
);
},
{
closed = 1;
nodes = (
(802,136,l),
(798,222,l),
(724,222,o),
(694,272,o),
(674,314,c),
(678,132,l)
);
},
{
pos = (10,100);
ref = "waw-ar.fina.alt";
}
);
width = 908;
}
);
},
{
glyphname = "lam_alefMaksura-ar.fina";
layers = (
{
anchors = (
{
name = bottom_2;
pos = (784,-252);
},
{
name = caret_1;
pos = (190,0);
},
{
name = fatha_1;
pos = (58,1102);
},
{
name = fatha_2;
pos = (82,14);
}
);
layerId = m01;
shapes = (
{
closed = 1;
nodes = (
(666,-308,o),
(722,-276,o),
(718,-226,cs),
(712,-162,o),
(688,-106,o),
(658,-50,cs),
(650,-36,o),
(632,-26,o),
(616,-26,cs),
(532,-26,o),
(458,-26,o),
(352,-26,cs),
(312,-26,o),
(316,30,o),
(316,70,c),
(282,0,l),
(462,0,l),
(462,172,l),
(506,132,l),
(424,148,o),
(316,138,o),
(316,292,cs),
(316,522,o),
(354,1068,o),
(296,1242,c),
(264,1156,o),
(222,1078,o),
(172,1038,c),
(204,940,o),
(210,698,o),
(206,576,cs),
(200,402,o),
(182,74,o),
(194,-118,cs),
(196,-144,o),
(200,-154,o),
(226,-158,cs),
(336,-172,o),
(438,-168,o),
(520,-164,c),
(526,-178,o),
(530,-180,o),
(530,-194,c),
(468,-194,o),
(272,-212,o),
(182,-174,c),
(154,-216,o),
(94,-258,o),
(4,-302,c),
(128,-340,o),
(532,-330,o),
(620,-316,cs)
);
}
);
width = 360;
}
);
},
{
glyphname = "ain_waw-ar";
layers = (
{
anchors = (
{
name = caret_1;
pos = (689,0);
},
{
name = fatha_1;
pos = (820,618);
},
{
name = fatha_2;
pos = (394,640);
}
);
backgroundImage = {
imagePath = "images/ain_waw-ar.jpg";
locked = 1;
pos = (-196,-456);
scale = (20,20);
};
layerId = m01;
shapes = (
{
closed = 1;
nodes = (
(728,-94,o),
(779,0,o),
(743,79,cs),
(703,167,o),
(684,212,o),
(630,300,cs),
(590,364,o),
(521,476,o),
(403,476,cs),
(253,476,o),
(124,274,o),
(156,134,cs),
(188,-2,o),
(374,-30,o),
(563,-12,c),
(567,-20,o),
(567,-25,o),
(567,-33,c),
(417,-53,o),
(208,-29,o),
(142,57,c),
(94,0,o),
(10,-46,o),
(-54,-60,c),
(153,-189,o),
(485,-165,o),
(584,-136,cs)
);
},
{
closed = 1;
nodes = (
(381,239,o),
(375,245,o),
(375,252,cs),
(375,259,o),
(381,265,o),
(388,265,cs),
(395,265,o),
(401,259,o),
(401,252,cs),
(401,245,o),
(395,239,o),
(388,239,cs)
);
},
{
closed = 1;
nodes = (
(1025,-4,o),
(1537,-4,o),
(1864,0,c),
(1927,49,o),
(2001,82,o),
(2080,106,c),
(1864,98,o),
(1324,109,o),
(1130,170,cs),
(944,228,o),
(789,371,o),
(848,442,cs),
(956,571,l),
(942,584,l),
(728,346,ls),
(663,274,o),
(710,127,o),
(808,107,c),
(860,142,l),
(680,142,l),
(680,-1,l)
);
}
);
width = 2100;
}
);
},
{
glyphname = "fehDotless_alef-ar";
layers = (
{
anchors = (
{
name = caret_1;
pos = (208,0);
},
{
name = top.hamza_2;
pos = (298,1124);
},
{
name = top_1;
pos = (278,596);
}
);
layerId = m01;
shapes = (
{
closed = 1;
nodes = (
(356,-16,o),
(546,-4,o),
(630,8,cs),
(708,18,o),
(732,52,o),
(732,106,cs),
(730,268,o),
(634,640,o),
(416,640,cs),
(264,640,o),
(150,464,o),
(172,314,cs),
(200,120,o),
(464,154,o),
(548,148,c),
(552,144,o),
(554,140,o),
(554,132,c),
(340,132,o),
(140,132,o),
(140,362,cs),
(140,698,o),
(218,1030,o),
(178,1364,c),
(214,1346,l),
(156,1238,o),
(72,1128,o),
(-20,1040,c),
(30,1220,l),
(38,1128,o),
(56,1036,o),
(56,944,cs),
(56,668,o),
(24,454,o),
(20,178,cs),
(18,24,o),
(92,-16,o),
(194,-16,cs)
);
},
{
closed = 1;
nodes = (
(410,398,o),
(404,404,o),
(404,411,cs),
(404,418,o),
(410,424,o),
(417,424,cs),
(424,424,o),
(430,418,o),
(430,411,cs),
(430,404,o),
(424,398,o),
(417,398,cs)
);
}
);
width = 752;
}
);
},
{
glyphname = "fehDotless_alefMaksura-ar";
layers = (
{
anchors = (
{
name = bottom_1;
pos = (958,290);
},
{
name = bottom_2;
pos = (544,-110);
},
{
name = caret_1;
pos = (400,0);
},
{
name = top_1;
pos = (452,692);
},
{
name = top_2;
pos = (132,382);
}
);
layerId = m01;
shapes = (
{
closed = 1;
nodes = (
(420,-4,o),
(1512,-14,o),
(1868,34,cs),
(1876,36,o),
(1882,42,o),
(1890,50,cs),
(1922,82,o),
(1964,112,o),
(2030,136,c),
(1718,110,o),
(830,98,o),
(412,122,cs),
(322,128,o),
(250,156,o),
(220,184,cs),
(214,190,o),
(214,204,o),
(224,200,cs),
(232,196,o),
(238,188,o),
(246,184,cs),
(286,160,o),
(342,142,o),
(400,140,cs),
(542,134,o),
(722,146,o),
(806,156,cs),
(846,160,o),
(908,180,o),
(916,226,cs),
(962,492,o),
(814,786,o),
(626,786,cs),
(432,786,o),
(286,406,o),
(466,318,cs),
(546,280,o),
(682,294,o),
(758,306,c),
(768,292,l),
(712,278,o),
(538,268,o),
(458,294,cs),
(380,318,o),
(368,424,o),
(262,424,cs),
(132,424,o),
(20,270,o),
(20,134,cs),
(20,22,o),
(142,20,o),
(206,14,cs)
);
},
{
closed = 1;
nodes = (
(632,534,o),
(626,540,o),
(626,547,cs),
(626,554,o),
(632,560,o),
(639,560,cs),
(646,560,o),
(652,554,o),
(652,547,cs),
(652,540,o),
(646,534,o),
(639,534,cs)
);
}
);
width = 2030;
}
);
},
{
glyphname = "lam_lam_heh-ar";
layers = (
{
anchors = (
{
name = caret_1;
pos = (495,0);
},
{
name = caret_2;
pos = (645,0);
},
{
name = fatha_2;
pos = (388,1013);
},
{
name = kasra_1;
pos = (649,112);
},
{
name = kasra_3;
pos = (391,-76);
}
);
backgroundImage = {
alpha = 100;
imagePath = "1/image-0056.jpg";
locked = 1;
pos = (-8550,-3239);
scale = (20,20);
};
layerId = m01;
shapes = (
{
closed = 1;
nodes = (
(331,439,l),
(418,540,l),
(259,508,o),
(20,419,o),
(20,217,cs),
(20,61,o),
(148,-1,o),
(279,0,cs),
(385,1,o),
(492,1,o),
(598,0,c),
(572,-81,l),
(572,212,l),
(591,171,l),
(543,171,o),
(477,173,o),
(477,248,cs),
(478,443,o),
(475,638,o),
(470,833,c),
(529,833,l),
(475,735,o),
(375,584,o),
(302,532,c),
(332,621,l)
);
},
{
closed = 1;
nodes = (
(311,277,o),
(305,283,o),
(305,290,cs),
(305,297,o),
(311,303,o),
(318,303,cs),
(325,303,o),
(331,297,o),
(331,290,cs),
(331,283,o),
(325,277,o),
(318,277,cs)
);
},
{
closed = 1;
nodes = (
(584,0,l),
(744,0,ls),
(782,0,o),
(809,24,o),
(809,50,cs),
(809,192,o),
(788,472,o),
(786,652,cs),
(784,884,o),
(785,1118,o),
(753,1350,c),
(791,1372,l),
(741,1281,o),
(693,1173,o),
(621,1113,c),
(618,1149,l),
(639,1089,o),
(662,1029,o),
(662,900,cs),
(662,710,o),
(670,382,o),
(664,132,c),
(586,134,l),
(612,180,l),
(612,-34,l)
);
},
{
closed = 1;
nodes = (
(644,179,o),
(625,203,o),
(625,300,cs),
(625,572,o),
(636,1010,o),
(579,1312,c),
(629,1210,l),
(588,1118,o),
(524,987,o),
(447,936,c),
(426,1119,l),
(463,1035,o),
(509,890,o),
(510,746,cs),
(513,83,l),
(578,132,l),
(409,132,l),
(471,150,l),
(471,-34,l),
(424,0,l),
(704,0,l),
(689,-45,l),
(689,173,l)
);
}
);
width = 829;
}
);
},
{
glyphname = "meem_noonghunna-ar";
layers = (
{
anchors = (
{
name = caret_1;
pos = (410,0);
},
{
name = fatha_2;
pos = (137,452);
},
{
name = kasra_1;
pos = (665,-127);
},
{
name = top_2;
pos = (62,266);
}
);
backgroundImage = {
alpha = 100;
imagePath = "1/image-0056.jpg";
locked = 1;
pos = (-7727,-7014);
scale = (20,20);
};
layerId = m01;
shapes = (
{
closed = 1;
nodes = (
(66,-900,o),
(263,-907,o),
(413,-886,cs),
(441,-882,o),
(454,-862,o),
(453,-838,cs),
(439,-592,o),
(432,-245,o),
(442,-50,cs),
(455,202,o),
(391,307,o),
(99,383,c),
(150,408,l),
(116,324,o),
(64,234,o),
(-22,150,c),
(5,189,l),
(115,180,o),
(260,127,o),
(295,6,cs),
(337,-140,o),
(326,-478,o),
(324,-728,c),
(226,-737,o),
(113,-716,o),
(27,-682,c),
(120,-663,l),
(77,-743,o),
(-6,-829,o),
(-83,-883,c),
(-88,-859,l)
);
},
{
closed = 1;
nodes = (
(919,21,o),
(964,66,o),
(950,183,cs),
(930,345,o),
(835,541,o),
(693,541,cs),
(543,541,o),
(419,379,o),
(413,195,cs),
(409,87,o),
(515,21,o),
(717,21,cs)
);
},
{
closed = 1;
nodes = (
(709,239,o),
(703,245,o),
(703,252,cs),
(703,259,o),
(709,265,o),
(716,265,cs),
(723,265,o),
(729,259,o),
(729,252,cs),
(729,245,o),
(723,239,o),
(716,239,cs)
);
}
);
width = 962;
}
);
},
{
glyphname = "meem_noonghunna-ar.1";
layers = (
{
anchors = (
{
name = caret_1;
pos = (410,-20);
},
{
name = fatha_2;
pos = (197,432);
},
{
name = kasra_1;
pos = (721,-92);
},
{
name = top_2;
pos = (107,226);
}
);
backgroundImage = {
alpha = 100;
imagePath = "1/image-0056.jpg";
pos = (-14787,-3234);
scale = (20,20);
};
layerId = m01;
shapes = (
{
closed = 1;
nodes = (
(74,-891,o),
(271,-912,o),
(419,-891,cs),
(447,-887,o),
(460,-867,o),
(459,-843,cs),
(449,-597,o),
(442,-275,o),
(448,-80,cs),
(456,172,o),
(431,259,o),
(99,363,c),
(222,378,l),
(188,294,o),
(112,204,o),
(26,120,c),
(5,154,l),
(115,145,o),
(269,97,o),
(304,-24,cs),
(346,-170,o),
(326,-473,o),
(324,-723,c),
(226,-732,o),
(113,-711,o),
(27,-677,c),
(131,-658,l),
(90,-736,o),
(1,-818,o),
(-75,-872,c),
(-80,-848,l)
);
},
{
closed = 1;
nodes = (
(919,2,o),
(944,36,o),
(930,153,cs),
(910,315,o),
(841,501,o),
(699,501,cs),
(569,501,o),
(441,348,o),
(413,165,cs),
(404,107,o),
(515,-20,o),
(717,-9,cs)
);
},
{
closed = 1;
nodes = (
(709,209,o),
(703,215,o),
(703,222,cs),
(703,229,o),
(709,235,o),
(716,235,cs),
(723,235,o),
(729,229,o),
(729,222,cs),
(729,215,o),
(723,209,o),
(716,209,cs)
);
}
);
width = 953;
}
);
},
{
glyphname = .notdef;
layers = (
{
layerId = m01;
shapes = (
{
closed = 1;
nodes = (
(1000,-800,l),
(1000,1200,l),
(200,1200,l),
(200,-800,l)
);
},
{
closed = 1;
nodes = (
(948,1084,l),
(852,1116,l),
(252,-684,l),
(348,-716,l)
);
},
{
closed = 1;
nodes = (
(348,1116,l),
(252,1084,l),
(852,-716,l),
(948,-684,l)
);
},
{
closed = 1;
nodes = (
(300,1100,l),
(900,1100,l),
(900,-700,l),
(300,-700,l)
);
}
);
width = 1200;
}
);
},
{
glyphname = "endofayah-ar";
layers = (
{
guides = (
{
angle = 90;
pos = (370,208);
},
{
angle = 180;
pos = (350,104);
},
{
angle = 202.5;
pos = (370,208);
},
{
angle = 247.5;
pos = (370,208);
},
{
angle = 225;
pos = (370,208);
}
);
layerId = m01;
shapes = (
{
closed = 1;
nodes = (
(498,-22,o),
(600,82,o),
(600,208,cs),
(600,334,o),
(498,438,o),
(370,438,cs),
(244,438,o),
(140,334,o),
(140,208,cs),
(140,82,o),
(244,-22,o),
(370,-22,cs)
);
},
{
closed = 1;
nodes = (
(294,0,o),
(322,74,o),
(352,140,c),
(362,128,l),
(346,130,o),
(332,136,o),
(320,146,c),
(334,148,l),
(310,80,o),
(276,8,o),
(222,60,cs),
(170,114,o),
(242,148,o),
(310,172,c),
(306,160,l),
(296,172,o),
(290,186,o),
(290,202,c),
(302,190,l),
(236,160,o),
(162,132,o),
(162,208,cs),
(162,284,o),
(236,256,o),
(302,226,c),
(290,214,l),
(292,232,o),
(298,248,o),
(308,260,c),
(310,244,l),
(242,268,o),
(170,302,o),
(222,356,cs),
(276,408,o),
(310,336,o),
(334,268,c),
(318,268,l),
(330,278,o),
(344,286,o),
(362,288,c),
(352,276,l),
(322,342,o),
(294,416,o),
(370,416,cs),
(446,416,o),
(418,342,o),
(388,276,c),
(380,288,l),
(394,286,o),
(406,280,o),
(418,272,c),
(406,268,l),
(430,336,o),
(464,408,o),
(518,356,cs),
(570,302,o),
(498,268,o),
(430,244,c),
(430,262,l),
(440,250,o),
(448,234,o),
(450,218,c),
(438,226,l),
(504,256,o),
(578,284,o),
(578,208,cs),
(578,132,o),
(504,160,o),
(438,190,c),
(450,200,l),
(448,184,o),
(442,168,o),
(432,156,c),
(430,172,l),
(498,148,o),
(570,114,o),
(518,60,cs),
(464,8,o),
(430,80,o),
(406,148,c),
(424,148,l),
(412,138,o),
(396,130,o),
(380,128,c),
(388,140,l),
(418,74,o),
(446,0,o),
(370,0,cs)
);
},
{
closed = 1;
nodes = (
(400,156,o),
(422,180,o),
(422,208,cs),
(422,236,o),
(400,260,o),
(370,260,cs),
(342,260,o),
(318,236,o),
(318,208,cs),
(318,180,o),
(342,156,o),
(370,156,cs)
);
}
);
width = 740;
},
{
associatedMasterId = m01;
attr = {
colorPalette = 1;
};
layerId = "38461C08-F54E-4BE4-9620-3C6CF5840E38";
shapes = (
{
closed = 1;
nodes = (
(498,-22,o),
(600,82,o),
(600,208,cs),
(600,334,o),
(498,438,o),
(370,438,cs),
(244,438,o),
(140,334,o),
(140,208,cs),
(140,82,o),
(244,-22,o),
(370,-22,cs)
);
}
);
width = 740;
},
{
associatedMasterId = m01;
attr = {
colorPalette = 2;
};
layerId = "A1159DA2-F385-4606-A8B3-A130608730DA";
shapes = (
{
closed = 1;
nodes = (
(498,-22,o),
(600,82,o),
(600,208,cs),
(600,334,o),
(498,438,o),
(370,438,cs),
(244,438,o),
(140,334,o),
(140,208,cs),
(140,82,o),
(244,-22,o),
(370,-22,cs)
);
},
{
closed = 1;
nodes = (
(294,0,o),
(322,74,o),
(352,140,c),
(362,128,l),
(346,130,o),
(332,136,o),
(320,146,c),
(334,148,l),
(310,80,o),
(276,8,o),
(222,60,cs),
(170,114,o),
(242,148,o),
(310,172,c),
(306,160,l),
(296,172,o),
(290,186,o),
(290,202,c),
(302,190,l),
(236,160,o),
(162,132,o),
(162,208,cs),
(162,284,o),
(236,256,o),
(302,226,c),
(290,214,l),
(292,232,o),
(298,248,o),
(308,260,c),
(310,244,l),
(242,268,o),
(170,302,o),
(222,356,cs),
(276,408,o),
(310,336,o),
(334,268,c),
(318,268,l),
(330,278,o),
(344,286,o),
(362,288,c),
(352,276,l),
(322,342,o),
(294,416,o),
(370,416,cs),
(446,416,o),
(418,342,o),
(388,276,c),
(380,288,l),
(394,286,o),
(406,280,o),
(418,272,c),
(406,268,l),
(430,336,o),
(464,408,o),
(518,356,cs),
(570,302,o),
(498,268,o),
(430,244,c),
(430,262,l),
(440,250,o),
(448,234,o),
(450,218,c),
(438,226,l),
(504,256,o),
(578,284,o),
(578,208,cs),
(578,132,o),
(504,160,o),
(438,190,c),
(450,200,l),
(448,184,o),
(442,168,o),
(432,156,c),
(430,172,l),
(498,148,o),
(570,114,o),
(518,60,cs),
(464,8,o),
(430,80,o),
(406,148,c),
(424,148,l),
(412,138,o),
(396,130,o),
(380,128,c),
(388,140,l),
(418,74,o),
(446,0,o),
(370,0,cs)
);
},
{
closed = 1;
nodes = (
(400,156,o),
(422,180,o),
(422,208,cs),
(422,236,o),
(400,260,o),
(370,260,cs),
(342,260,o),
(318,236,o),
(318,208,cs),
(318,180,o),
(342,156,o),
(370,156,cs)
);
}
);
width = 740;
},
{
associatedMasterId = m01;
attr = {
colorPalette = 0;
};
guides = (
{
angle = 90;
pos = (370,208);
},
{
angle = 180;
pos = (370,208);
},
{
angle = 202.5;
pos = (370,208);
},
{
angle = 247.5;
pos = (370,208);
},
{
angle = 225;
pos = (370,208);
}
);
layerId = "F1582E70-E757-409A-AE56-0C2D8B4714EF";
shapes = (
{
closed = 1;
nodes = (
(306,380,o),
(322,396,o),
(322,418,cs),
(322,438,o),
(306,454,o),
(286,454,cs),
(264,454,o),
(248,438,o),
(248,418,cs),
(248,396,o),
(264,380,o),
(286,380,cs)
);
},
{
closed = 1;
nodes = (
(476,380,o),
(492,396,o),
(492,418,cs),
(492,438,o),
(476,454,o),
(456,454,cs),
(434,454,o),
(418,438,o),
(418,418,cs),
(418,396,o),
(434,380,o),
(456,380,cs)
);
},
{
closed = 1;
nodes = (
(306,-38,o),
(322,-22,o),
(322,0,cs),
(322,20,o),
(306,36,o),
(286,36,cs),
(264,36,o),
(248,20,o),
(248,0,cs),
(248,-22,o),
(264,-38,o),
(286,-38,cs)
);
},
{
closed = 1;
nodes = (
(476,-38,o),
(492,-22,o),
(492,0,cs),
(492,20,o),
(476,36,o),
(456,36,cs),
(434,36,o),
(418,20,o),
(418,0,cs),
(418,-22,o),
(434,-38,o),
(456,-38,cs)
);
},
{
closed = 1;
nodes = (
(182,256,o),
(198,272,o),
(198,294,cs),
(198,314,o),
(182,330,o),
(162,330,cs),
(140,330,o),
(124,314,o),
(124,294,cs),
(124,272,o),
(140,256,o),
(162,256,cs)
);
},
{
closed = 1;
nodes = (
(182,86,o),
(198,102,o),
(198,124,cs),
(198,144,o),
(182,160,o),
(162,160,cs),
(140,160,o),
(124,144,o),
(124,124,cs),
(124,102,o),
(140,86,o),
(162,86,cs)
);
},
{
closed = 1;
nodes = (
(600,256,o),
(616,272,o),
(616,294,cs),
(616,314,o),
(600,330,o),
(580,330,cs),
(558,330,o),
(542,314,o),
(542,294,cs),
(542,272,o),
(558,256,o),
(580,256,cs)
);
},
{
closed = 1;
nodes = (
(600,86,o),
(616,102,o),
(616,124,cs),
(616,144,o),
(600,160,o),
(580,160,cs),
(558,160,o),
(542,144,o),
(542,124,cs),
(542,102,o),
(558,86,o),
(580,86,cs)
);
}
);
width = 740;
}
);
unicode = 1757;
},
{
category = Mark;
glyphname = "dotabove-ar";
layers = (
{
anchors = (
{
name = _top;
pos = (90,50);
}
);
layerId = m01;
shapes = (
{
closed = 1;
nodes = (
(61,50,o),
(94,95,o),
(129,153,c),
(111,163,l),
(78,107,o),
(45,62,o),
(1,12,c),
(17,-2,l)
);
}
);
width = 128;
},
{
anchors = (
{
name = _top;
pos = (90,50);
}
);
associatedMasterId = m01;
layerId = "1951D83C-027C-46A2-BBE7-A485E6845D98";
name = "1 May 21, 00:30";
shapes = (
{
closed = 1;
nodes = (
(128,152,l),
(112,164,l),
(0,12,l),
(16,0,l)
);
}
);
width = 128;
}
);
subCategory = Nonspacing;
},
{
category = Mark;
glyphname = "dotabove-ar.reh";
layers = (
{
anchors = (
{
name = _top;
pos = (90,50);
}
);
layerId = m01;
shapes = (
{
closed = 1;
nodes = (
(62,42,o),
(104,91,o),
(142,142,c),
(126,154,l),
(88,103,o),
(48,56,o),
(2,13,c),
(16,-1,l)
);
}
);
width = 142;
},
{
anchors = (
{
name = _top;
pos = (90,50);
}
);
associatedMasterId = m01;
layerId = "54B3BE47-6985-45AE-A51D-CDE60F3B1871";
name = "1 May 21, 00:31";
shapes = (
{
closed = 1;
nodes = (
(142,142,l),
(126,154,l),
(0,12,l),
(16,0,l)
);
},
{
closed = 0;
nodes = (
(134,148,l),
(96,97,o),
(55,49,o),
(9,6,c)
);
}
);
width = 142;
}
);
subCategory = Nonspacing;
},
{
category = Mark;
glyphname = "fatha-ar";
layers = (
{
anchors = (
{
name = _fatha;
pos = (92,92);
}
);
attr = {
colorPalette = 0;
};
layerId = m01;
shapes = (
{
closed = 1;
nodes = (
(142,0,o),
(184,42,o),
(184,92,cs),
(184,142,o),
(142,184,o),
(92,184,cs),
(42,184,o),
(0,142,o),
(0,92,cs),
(0,42,o),
(42,0,o),
(92,0,cs)
);
}
);
width = 184;
}
);
subCategory = Nonspacing;
unicode = 1614;
},
{
category = Mark;
glyphname = "threedotsabove-ar.seen";
layers = (
{
anchors = (
{
name = _top;
pos = (210,-14);
}
);
layerId = m01;
shapes = (
{
closed = 1;
nodes = (
(372,135,o),
(406,189,o),
(434,249,c),
(416,257,l),
(388,199,o),
(356,147,o),
(320,98,c),
(336,86,l)
);
},
{
closed = 1;
nodes = (
(218,82,o),
(253,137,o),
(276,196,c),
(258,204,l),
(235,147,o),
(202,94,o),
(162,42,c),
(178,30,l)
);
},
{
closed = 1;
nodes = (
(52,54,o),
(76,110,o),
(98,166,c),
(80,174,l),
(58,118,o),
(34,64,o),
(0,12,c),
(16,0,l)
);
}
);
width = 434;
}
);
subCategory = Nonspacing;
},
